<mxfile host="app.diagrams.net" modified="2022-11-25T15:02:08.068Z" agent="5.0 (Windows NT 10.0; Win64; x64) AppleWebKit/537.36 (KHTML, like Gecko) Chrome/107.0.0.0 Safari/537.36" etag="Om_4DrTTfzPqfKsPwcgd" version="20.6.0" type="github">
  <diagram name="Page-1" id="929967ad-93f9-6ef4-fab6-5d389245f69c">
    <mxGraphModel dx="2204" dy="1162" grid="1" gridSize="10" guides="1" tooltips="1" connect="1" arrows="1" fold="1" page="1" pageScale="1.5" pageWidth="1169" pageHeight="826" background="none" math="0" shadow="0">
      <root>
        <mxCell id="0" style=";html=1;" />
        <mxCell id="1" style=";html=1;" parent="0" />
        <mxCell id="cxOItKHasqJnhGXQ3bDC-30" value="Google Cloud" style="swimlane;whiteSpace=wrap;html=1;" vertex="1" parent="1">
          <mxGeometry x="590" y="750" width="1080" height="570" as="geometry" />
        </mxCell>
        <mxCell id="cxOItKHasqJnhGXQ3bDC-36" value="Google Cloud SQL" style="swimlane;whiteSpace=wrap;html=1;" vertex="1" parent="cxOItKHasqJnhGXQ3bDC-30">
          <mxGeometry x="810" y="50" width="227" height="500" as="geometry" />
        </mxCell>
        <mxCell id="cxOItKHasqJnhGXQ3bDC-25" value="&lt;div&gt;&lt;br&gt;&lt;/div&gt;&lt;div&gt;okr-project-db&lt;/div&gt;&lt;br&gt;34.118.32.135&lt;br&gt;&lt;br&gt;&lt;br&gt;&lt;br&gt;&lt;br&gt;" style="html=1;shape=mxgraph.sysml.itemFlowLeft;fontStyle=1;whiteSpace=wrap;align=center;" vertex="1" parent="cxOItKHasqJnhGXQ3bDC-36">
          <mxGeometry x="10" y="220" width="200" height="260" as="geometry" />
        </mxCell>
        <mxCell id="cxOItKHasqJnhGXQ3bDC-26" value="" style="resizable=0;html=1;align=left;spacingLeft=22;verticalAlign=middle;labelPosition=left;verticalLabelPosition=top;labelBackgroundColor=none;fontSize=10" connectable="0" vertex="1" parent="cxOItKHasqJnhGXQ3bDC-25">
          <mxGeometry y="65" as="geometry" />
        </mxCell>
        <mxCell id="cxOItKHasqJnhGXQ3bDC-27" value="" style="resizable=0;html=1;align=left;spacingLeft=22;verticalAlign=middle;labelPosition=left;verticalLabelPosition=top;labelBackgroundColor=none;fontSize=10" connectable="0" vertex="1" parent="cxOItKHasqJnhGXQ3bDC-25">
          <mxGeometry y="130" as="geometry" />
        </mxCell>
        <mxCell id="cxOItKHasqJnhGXQ3bDC-28" value="tcp:5432" style="resizable=0;html=1;align=left;spacingLeft=22;verticalAlign=middle;labelPosition=left;verticalLabelPosition=top;labelBackgroundColor=none;fontSize=10" connectable="0" vertex="1" parent="cxOItKHasqJnhGXQ3bDC-25">
          <mxGeometry y="195" as="geometry" />
        </mxCell>
        <mxCell id="cxOItKHasqJnhGXQ3bDC-43" value="postgres&lt;br&gt;postgres 10.2" style="shape=cylinder3;whiteSpace=wrap;html=1;boundedLbl=1;backgroundOutline=1;size=15;" vertex="1" parent="cxOItKHasqJnhGXQ3bDC-25">
          <mxGeometry x="100" y="145.48" width="87" height="99.05" as="geometry" />
        </mxCell>
        <mxCell id="cxOItKHasqJnhGXQ3bDC-44" style="rounded=0;orthogonalLoop=1;jettySize=auto;html=1;entryX=0.335;entryY=0.75;entryDx=0;entryDy=0;entryPerimeter=0;endArrow=oval;endFill=0;" edge="1" parent="cxOItKHasqJnhGXQ3bDC-25" source="cxOItKHasqJnhGXQ3bDC-43" target="cxOItKHasqJnhGXQ3bDC-25">
          <mxGeometry relative="1" as="geometry">
            <mxPoint x="77" y="200" as="targetPoint" />
          </mxGeometry>
        </mxCell>
        <mxCell id="cxOItKHasqJnhGXQ3bDC-29" value="Google Compute Engine" style="swimlane;whiteSpace=wrap;html=1;" vertex="1" parent="cxOItKHasqJnhGXQ3bDC-30">
          <mxGeometry x="360" y="50" width="220" height="500" as="geometry">
            <mxRectangle x="350" y="50" width="180" height="30" as="alternateBounds" />
          </mxGeometry>
        </mxCell>
        <mxCell id="cxOItKHasqJnhGXQ3bDC-21" value="postgres-tutorial&lt;br style=&quot;&quot;&gt;&lt;br&gt;35.228.107.206" style="html=1;shape=mxgraph.sysml.itemFlowLeft;fontStyle=1;whiteSpace=wrap;align=center;" vertex="1" parent="cxOItKHasqJnhGXQ3bDC-29">
          <mxGeometry x="10" y="220" width="200" height="260" as="geometry" />
        </mxCell>
        <mxCell id="cxOItKHasqJnhGXQ3bDC-22" value="" style="resizable=0;html=1;align=left;spacingLeft=22;verticalAlign=middle;labelPosition=left;verticalLabelPosition=top;labelBackgroundColor=none;fontSize=10" connectable="0" vertex="1" parent="cxOItKHasqJnhGXQ3bDC-21">
          <mxGeometry y="65" as="geometry" />
        </mxCell>
        <mxCell id="cxOItKHasqJnhGXQ3bDC-23" value="" style="resizable=0;html=1;align=left;spacingLeft=22;verticalAlign=middle;labelPosition=left;verticalLabelPosition=top;labelBackgroundColor=none;fontSize=10" connectable="0" vertex="1" parent="cxOItKHasqJnhGXQ3bDC-21">
          <mxGeometry y="130" as="geometry" />
        </mxCell>
        <mxCell id="cxOItKHasqJnhGXQ3bDC-24" value="" style="resizable=0;html=1;align=left;spacingLeft=22;verticalAlign=middle;labelPosition=left;verticalLabelPosition=top;labelBackgroundColor=none;fontSize=10" connectable="0" vertex="1" parent="cxOItKHasqJnhGXQ3bDC-21">
          <mxGeometry y="195" as="geometry" />
        </mxCell>
        <mxCell id="cxOItKHasqJnhGXQ3bDC-49" value="&lt;span style=&quot;font-size: 10px; text-align: left;&quot;&gt;tcp:8080&lt;/span&gt;" style="text;html=1;strokeColor=none;fillColor=none;align=center;verticalAlign=middle;whiteSpace=wrap;rounded=0;" vertex="1" parent="cxOItKHasqJnhGXQ3bDC-21">
          <mxGeometry x="20" y="32.5" width="50" height="65" as="geometry" />
        </mxCell>
        <mxCell id="cxOItKHasqJnhGXQ3bDC-50" value="&lt;span style=&quot;font-size: 10px; text-align: left;&quot;&gt;tcp:5432&lt;/span&gt;" style="text;html=1;strokeColor=none;fillColor=none;align=center;verticalAlign=middle;whiteSpace=wrap;rounded=0;" vertex="1" parent="cxOItKHasqJnhGXQ3bDC-21">
          <mxGeometry x="20" y="162.5" width="50" height="65" as="geometry" />
        </mxCell>
        <mxCell id="cxOItKHasqJnhGXQ3bDC-42" value="" style="shape=cube;whiteSpace=wrap;html=1;boundedLbl=1;backgroundOutline=0.5;darkOpacity=0.05;darkOpacity2=0.1;rotation=-180;" vertex="1" parent="cxOItKHasqJnhGXQ3bDC-30">
          <mxGeometry x="40" y="187" width="230" height="361" as="geometry" />
        </mxCell>
        <mxCell id="cxOItKHasqJnhGXQ3bDC-47" value="FireWall" style="text;html=1;strokeColor=none;fillColor=none;align=center;verticalAlign=middle;whiteSpace=wrap;rounded=0;" vertex="1" parent="cxOItKHasqJnhGXQ3bDC-30">
          <mxGeometry x="120" y="187" width="60" height="30" as="geometry" />
        </mxCell>
        <mxCell id="cxOItKHasqJnhGXQ3bDC-51" value="" style="endArrow=oval;html=1;rounded=0;entryX=0;entryY=0.75;entryDx=0;entryDy=0;exitX=1;exitY=0.5;exitDx=0;exitDy=0;endFill=0;" edge="1" parent="cxOItKHasqJnhGXQ3bDC-30" source="cxOItKHasqJnhGXQ3bDC-52" target="cxOItKHasqJnhGXQ3bDC-21">
          <mxGeometry width="50" height="50" relative="1" as="geometry">
            <mxPoint x="290" y="325" as="sourcePoint" />
            <mxPoint x="340" y="275" as="targetPoint" />
          </mxGeometry>
        </mxCell>
        <mxCell id="cxOItKHasqJnhGXQ3bDC-52" value="targets" style="rounded=0;whiteSpace=wrap;html=1;" vertex="1" parent="cxOItKHasqJnhGXQ3bDC-30">
          <mxGeometry x="170" y="450" width="100" height="30" as="geometry" />
        </mxCell>
        <mxCell id="cxOItKHasqJnhGXQ3bDC-61" value="&lt;span style=&quot;font-weight: normal;&quot;&gt;IP Ranges&lt;/span&gt;" style="swimlane;whiteSpace=wrap;html=1;" vertex="1" parent="cxOItKHasqJnhGXQ3bDC-30">
          <mxGeometry x="65" y="295" width="170" height="120" as="geometry" />
        </mxCell>
        <mxCell id="cxOItKHasqJnhGXQ3bDC-62" value="&lt;span style=&quot;text-align: left;&quot;&gt;94.159.193.43/32&lt;br&gt;&lt;/span&gt;&lt;span style=&quot;text-align: left;&quot;&gt;35.228.107.206&lt;br&gt;&lt;/span&gt;&lt;span style=&quot;text-align: left;&quot;&gt;35.228.107.206/32&lt;br&gt;&lt;/span&gt;&lt;span style=&quot;text-align: left;&quot;&gt;94.159.193.48/32&lt;br&gt;&lt;/span&gt;&lt;span style=&quot;text-align: left;&quot;&gt;&lt;br&gt;&lt;/span&gt;" style="text;html=1;strokeColor=none;fillColor=none;align=center;verticalAlign=middle;whiteSpace=wrap;rounded=0;" vertex="1" parent="cxOItKHasqJnhGXQ3bDC-61">
          <mxGeometry x="20" y="40" width="130" height="80" as="geometry" />
        </mxCell>
        <mxCell id="cxOItKHasqJnhGXQ3bDC-63" value="" style="ellipse;shape=cloud;whiteSpace=wrap;html=1;" vertex="1" parent="cxOItKHasqJnhGXQ3bDC-30">
          <mxGeometry x="580" width="30" height="20" as="geometry" />
        </mxCell>
        <mxCell id="1672d66443f91eb5-23" value="OKR Lab Production Design&lt;br&gt;" style="text;strokeColor=none;fillColor=none;html=1;fontSize=24;fontStyle=1;verticalAlign=middle;align=center;" parent="1" vertex="1">
          <mxGeometry x="430" y="340" width="1510" height="40" as="geometry" />
        </mxCell>
        <mxCell id="cxOItKHasqJnhGXQ3bDC-3" value="Package1" style="shape=folder;tabWidth=80;tabHeight=20;tabPosition=left;strokeWidth=2;html=1;whiteSpace=wrap;align=center;" vertex="1" parent="1">
          <mxGeometry x="160" y="240" width="160" height="90" as="geometry" />
        </mxCell>
        <mxCell id="cxOItKHasqJnhGXQ3bDC-5" value="pc_usage" style="html=1;shape=mxgraph.sysml.itemFlowLeft;fontStyle=1;whiteSpace=wrap;align=center;" vertex="1" parent="1">
          <mxGeometry x="250" y="1050" width="200" height="120" as="geometry" />
        </mxCell>
        <mxCell id="cxOItKHasqJnhGXQ3bDC-6" value="tp.1" style="resizable=0;html=1;align=left;spacingLeft=22;verticalAlign=middle;labelPosition=left;verticalLabelPosition=top;labelBackgroundColor=none;fontSize=10" connectable="0" vertex="1" parent="cxOItKHasqJnhGXQ3bDC-5">
          <mxGeometry y="30" as="geometry" />
        </mxCell>
        <mxCell id="cxOItKHasqJnhGXQ3bDC-7" value="tp.2" style="resizable=0;html=1;align=left;spacingLeft=22;verticalAlign=middle;labelPosition=left;verticalLabelPosition=top;labelBackgroundColor=none;fontSize=10" connectable="0" vertex="1" parent="cxOItKHasqJnhGXQ3bDC-5">
          <mxGeometry y="60" as="geometry" />
        </mxCell>
        <mxCell id="cxOItKHasqJnhGXQ3bDC-8" value="tp.3" style="resizable=0;html=1;align=left;spacingLeft=22;verticalAlign=middle;labelPosition=left;verticalLabelPosition=top;labelBackgroundColor=none;fontSize=10" connectable="0" vertex="1" parent="cxOItKHasqJnhGXQ3bDC-5">
          <mxGeometry y="90" as="geometry" />
        </mxCell>
        <mxCell id="cxOItKHasqJnhGXQ3bDC-45" value="Canonical, Ubuntu, 18.04 LTS&lt;br&gt;europe-north1-a" style="shape=note;whiteSpace=wrap;html=1;backgroundOutline=1;darkOpacity=0.05;" vertex="1" parent="1">
          <mxGeometry x="1430" y="510" width="180" height="190" as="geometry" />
        </mxCell>
        <mxCell id="cxOItKHasqJnhGXQ3bDC-46" value="" style="shape=note;whiteSpace=wrap;html=1;backgroundOutline=1;darkOpacity=0.05;" vertex="1" parent="1">
          <mxGeometry x="1680" y="520" width="180" height="190" as="geometry" />
        </mxCell>
      </root>
    </mxGraphModel>
  </diagram>
</mxfile>
